<mxfile host="app.diagrams.net" modified="2024-03-06T11:49:42.589Z" agent="Mozilla/5.0 (Windows NT 10.0; Win64; x64) AppleWebKit/537.36 (KHTML, like Gecko) Chrome/122.0.0.0 Safari/537.36" version="24.0.1" etag="LI_UvdWV7oK4Wk4XqEbu" type="github">
  <diagram name="Страница — 1" id="PqA5zgtxyubHgHUHDZYV">
    <mxGraphModel>
      <root>
        <mxCell id="0" />
        <mxCell id="1" parent="0" />
      </root>
    </mxGraphModel>
  </diagram>
</mxfile>
